<?xml version="1.0" encoding="UTF-8"?>
<svg width="285px" height="27px" viewBox="0 0 285 27" version="1.1" xmlns="http://www.w3.org/2000/svg" xmlns:xlink="http://www.w3.org/1999/xlink">
    <title>poterne_makelaars-logo</title>
    <g id="Page-1" stroke="none" stroke-width="1" fill="none" fill-rule="evenodd">
        <g id="poterne_makelaars-logo" transform="translate(0.536000, 0.400000)" fill-rule="nonzero">
            <path d="M7.488,25.6 C7.89333333,25.6 8.38933333,25.488 8.976,25.264 C9.56266667,25.04 10.0053333,24.8 10.304,24.544 C10.304,24.3093333 10.272,24.1066667 10.208,23.936 C10.144,23.7653333 10.0906667,23.6373333 10.048,23.552 L10.048,23.552 L6.752,23.136 C6.88,23.008 7.00266667,22.7573333 7.12,22.384 C7.23733333,22.0106667 7.296,21.5573333 7.296,21.024 L7.296,21.024 L7.296,16.32 L12.512,16.32 C13.088,16.256 13.6746667,16.0746667 14.272,15.776 C14.8693333,15.4773333 15.44,15.1413333 15.984,14.768 C16.528,14.3946667 16.9706667,14.0586667 17.312,13.76 C17.5466667,13.4826667 17.744,13.072 17.904,12.528 C18.064,11.984 18.1973333,11.3706667 18.304,10.688 C18.4106667,10.0053333 18.464,9.32266667 18.464,8.64 C18.464,8.02133333 18.4106667,7.41333333 18.304,6.816 C18.1973333,6.21866667 18.0266667,5.70666667 17.792,5.28 C17.536,5.024 17.1573333,4.74666667 16.656,4.448 C16.1546667,4.14933333 15.616,3.872 15.04,3.616 C14.464,3.36 13.9413333,3.17866667 13.472,3.072 L13.472,3.072 L1.952,3.072 C1.84533333,3.072 1.65333333,3.13066667 1.376,3.248 C1.09866667,3.36533333 0.826666667,3.49866667 0.56,3.648 C0.293333333,3.79733333 0.106666667,3.936 0,4.064 C0.0213333333,4.256 0.0693333333,4.448 0.144,4.64 C0.218666667,4.832 0.288,4.97066667 0.352,5.056 L0.352,5.056 L3.296,5.056 C3.27466667,5.07733333 3.216,5.16266667 3.12,5.312 C3.024,5.46133333 2.93333333,5.70666667 2.848,6.048 C2.76266667,6.38933333 2.72,6.89066667 2.72,7.552 L2.72,7.552 L2.72,20.224 C2.72,20.992 2.66666667,21.5946667 2.56,22.032 C2.45333333,22.4693333 2.29333333,22.7893333 2.08,22.992 C1.86666667,23.1946667 1.57866667,23.328 1.216,23.392 L1.216,23.392 L0.288,23.52 C0.224,23.6053333 0.16,23.7493333 0.096,23.952 C0.032,24.1546667 0,24.352 0,24.544 C0.192,24.608 0.544,24.6826667 1.056,24.768 C1.568,24.8533333 2.15466667,24.944 2.816,25.04 C3.47733333,25.136 4.13333333,25.2266667 4.784,25.312 C5.43466667,25.3973333 6.01066667,25.4666667 6.512,25.52 C7.01333333,25.5733333 7.33866667,25.6 7.488,25.6 Z M7.296,14.144 L7.296,7.488 C7.296,7.04 7.34933333,6.64533333 7.456,6.304 C7.56266667,5.96266667 7.74933333,5.68533333 8.016,5.472 C8.28266667,5.25866667 8.69333333,5.152 9.248,5.152 C9.48266667,5.152 9.85066667,5.17333333 10.352,5.216 C10.8533333,5.25866667 11.3653333,5.312 11.888,5.376 C12.4106667,5.44 12.832,5.52533333 13.152,5.632 C13.5146667,6.016 13.7653333,6.52266667 13.904,7.152 C14.0426667,7.78133333 14.112,8.448 14.112,9.152 C14.112,9.70666667 14.0746667,10.288 14,10.896 C13.9253333,11.504 13.8186667,12.0746667 13.68,12.608 C13.5413333,13.1413333 13.376,13.568 13.184,13.888 C12.4586667,13.9733333 11.5733333,14.0373333 10.528,14.08 C9.48266667,14.1226667 8.40533333,14.144 7.296,14.144 L7.296,14.144 Z M27.584,25.6 C28.2453333,25.6 28.9173333,25.504 29.6,25.312 C30.2826667,25.12 30.9386667,24.8746667 31.568,24.576 C32.1973333,24.2773333 32.7573333,23.9733333 33.248,23.664 C33.7386667,23.3546667 34.112,23.0826667 34.368,22.848 C34.6026667,22.1866667 34.8,21.2853333 34.96,20.144 C35.12,19.0026667 35.2,17.8346667 35.2,16.64 C35.2,16.0426667 35.1786667,15.4506667 35.136,14.864 C35.0933333,14.2773333 35.0186667,13.7333333 34.912,13.232 C34.8053333,12.7306667 34.6666667,12.3306667 34.496,12.032 C34.304,11.7973333 33.984,11.536 33.536,11.248 C33.088,10.96 32.5866667,10.6933333 32.032,10.448 C31.4773333,10.2026667 30.928,10 30.384,9.84 C29.84,9.68 29.3653333,9.6 28.96,9.6 C28.3413333,9.6 27.664,9.70133333 26.928,9.904 C26.192,10.1066667 25.4666667,10.352 24.752,10.64 C24.0373333,10.928 23.392,11.2213333 22.816,11.52 C22.24,11.8186667 21.8026667,12.064 21.504,12.256 C21.3546667,12.64 21.216,13.152 21.088,13.792 C20.96,14.432 20.8586667,15.136 20.784,15.904 C20.7093333,16.672 20.672,17.472 20.672,18.304 C20.672,19.2426667 20.7466667,20.1386667 20.896,20.992 C21.0453333,21.8453333 21.28,22.496 21.6,22.944 C21.7493333,23.136 22.0373333,23.376 22.464,23.664 C22.8906667,23.952 23.3973333,24.2453333 23.984,24.544 C24.5706667,24.8426667 25.1786667,25.0933333 25.808,25.296 C26.4373333,25.4986667 27.0293333,25.6 27.584,25.6 Z M28,22.912 C27.808,22.912 27.5733333,22.848 27.296,22.72 C27.0186667,22.592 26.7413333,22.4373333 26.464,22.256 C26.1866667,22.0746667 25.9413333,21.904 25.728,21.744 C25.5146667,21.584 25.376,21.472 25.312,21.408 C25.2693333,21.28 25.216,20.9493333 25.152,20.416 C25.088,19.8826667 25.0346667,19.2426667 24.992,18.496 C24.9493333,17.7493333 24.928,17.024 24.928,16.32 C24.928,15.872 24.9386667,15.4293333 24.96,14.992 C24.9813333,14.5546667 25.024,14.16 25.088,13.808 C25.152,13.456 25.216,13.2053333 25.28,13.056 C25.472,12.9706667 25.7333333,12.88 26.064,12.784 C26.3946667,12.688 26.736,12.6026667 27.088,12.528 C27.44,12.4533333 27.7226667,12.416 27.936,12.416 C28.2346667,12.416 28.5653333,12.5013333 28.928,12.672 C29.2906667,12.8426667 29.616,13.0346667 29.904,13.248 C30.192,13.4613333 30.3786667,13.632 30.464,13.76 C30.5493333,13.8666667 30.6186667,14.2186667 30.672,14.816 C30.7253333,15.4133333 30.7733333,16.096 30.816,16.864 C30.8586667,17.632 30.88,18.3573333 30.88,19.04 C30.88,19.7013333 30.8533333,20.336 30.8,20.944 C30.7466667,21.552 30.656,21.9946667 30.528,22.272 C30.3573333,22.336 30.1066667,22.4213333 29.776,22.528 C29.4453333,22.6346667 29.1093333,22.7253333 28.768,22.8 C28.4266667,22.8746667 28.1706667,22.912 28,22.912 Z M44.032,25.6 C44.416,25.6 44.8,25.5466667 45.184,25.44 C45.568,25.3333333 45.9306667,25.184 46.272,24.992 C46.6133333,24.8 46.8906667,24.5866667 47.104,24.352 C47.104,24.096 47.0666667,23.872 46.992,23.68 C46.9173333,23.488 46.8586667,23.3493333 46.816,23.264 L46.816,23.264 L43.648,22.752 L43.648,11.84 L46.4,11.904 C46.528,11.712 46.6613333,11.44 46.8,11.088 C46.9386667,10.736 47.0186667,10.3786667 47.04,10.016 L47.04,10.016 L46.656,9.6 L43.392,9.6 L43.392,4.48 L42.72,4 C42.1226667,4 41.5466667,4.112 40.992,4.336 C40.4373333,4.56 40.032,4.77866667 39.776,4.992 L39.776,4.992 L39.776,8.384 C39.776,8.85333333 39.7226667,9.15733333 39.616,9.296 C39.5093333,9.43466667 39.3386667,9.52533333 39.104,9.568 L39.104,9.568 L37.28,9.856 C37.1946667,9.92 37.0986667,10.08 36.992,10.336 C36.8853333,10.592 36.832,10.976 36.832,11.488 L36.832,11.488 L39.328,11.712 L39.328,23.104 C39.328,23.3173333 39.5093333,23.568 39.872,23.856 C40.2346667,24.144 40.6826667,24.4213333 41.216,24.688 C41.7493333,24.9546667 42.272,25.1733333 42.784,25.344 C43.296,25.5146667 43.712,25.6 44.032,25.6 Z M56.192,25.6 C57.0666667,25.6 57.8933333,25.4613333 58.672,25.184 C59.4506667,24.9066667 60.1386667,24.576 60.736,24.192 C61.3333333,23.808 61.7813333,23.4666667 62.08,23.168 C62.0586667,22.8906667 61.9946667,22.6666667 61.888,22.496 C61.7813333,22.3253333 61.6746667,22.1973333 61.568,22.112 C61.2693333,22.1546667 60.896,22.208 60.448,22.272 C60,22.336 59.5306667,22.4 59.04,22.464 C58.5493333,22.528 58.0853333,22.5813333 57.648,22.624 C57.2106667,22.6666667 56.8533333,22.688 56.576,22.688 C56.4053333,22.688 56.176,22.6293333 55.888,22.512 C55.6,22.3946667 55.3066667,22.2506667 55.008,22.08 C54.7093333,21.9093333 54.4426667,21.7493333 54.208,21.6 C53.9733333,21.4506667 53.824,21.344 53.76,21.28 C53.6746667,21.1733333 53.6,20.8746667 53.536,20.384 C53.472,19.8933333 53.4293333,19.3066667 53.408,18.624 C54.176,18.6026667 54.9173333,18.5653333 55.632,18.512 C56.3466667,18.4586667 57.0186667,18.3893333 57.648,18.304 C58.2773333,18.2186667 58.816,18.112 59.264,17.984 C59.52,17.856 59.8346667,17.664 60.208,17.408 C60.5813333,17.152 60.9546667,16.8533333 61.328,16.512 C61.7013333,16.1706667 62.016,15.8186667 62.272,15.456 C62.2933333,15.136 62.272,14.72 62.208,14.208 C62.144,13.696 62.0693333,13.1893333 61.984,12.688 C61.8986667,12.1866667 61.792,11.808 61.664,11.552 C61.4506667,11.296 61.0826667,11.0186667 60.56,10.72 C60.0373333,10.4213333 59.4933333,10.16 58.928,9.936 C58.3626667,9.712 57.8773333,9.6 57.472,9.6 C56.832,9.6 56.144,9.70133333 55.408,9.904 C54.672,10.1066667 53.952,10.352 53.248,10.64 C52.544,10.928 51.8986667,11.2213333 51.312,11.52 C50.7253333,11.8186667 50.2826667,12.064 49.984,12.256 C49.8346667,12.64 49.696,13.1573333 49.568,13.808 C49.44,14.4586667 49.3386667,15.1786667 49.264,15.968 C49.1893333,16.7573333 49.152,17.5573333 49.152,18.368 C49.152,19.2853333 49.2266667,20.1706667 49.376,21.024 C49.5253333,21.8773333 49.76,22.528 50.08,22.976 C50.1866667,23.1253333 50.4533333,23.344 50.88,23.632 C51.3066667,23.92 51.824,24.2133333 52.432,24.512 C53.04,24.8106667 53.6746667,25.0666667 54.336,25.28 C54.9973333,25.4933333 55.616,25.6 56.192,25.6 Z M55.36,16.512 C55.04,16.512 54.6933333,16.496 54.32,16.464 C53.9466667,16.432 53.6213333,16.384 53.344,16.32 C53.344,16 53.3546667,15.6426667 53.376,15.248 C53.3973333,14.8533333 53.4346667,14.464 53.488,14.08 C53.5413333,13.696 53.6213333,13.3653333 53.728,13.088 C53.92,13.0026667 54.1973333,12.9066667 54.56,12.8 C54.9226667,12.6933333 55.2853333,12.6026667 55.648,12.528 C56.0106667,12.4533333 56.2773333,12.416 56.448,12.416 C56.576,12.416 56.7466667,12.464 56.96,12.56 C57.1733333,12.656 57.376,12.7733333 57.568,12.912 C57.76,13.0506667 57.8986667,13.184 57.984,13.312 C58.0693333,13.504 58.1333333,13.7653333 58.176,14.096 C58.2186667,14.4266667 58.2506667,14.768 58.272,15.12 C58.2933333,15.472 58.304,15.776 58.304,16.032 C58.112,16.1386667 57.8453333,16.224 57.504,16.288 C57.1626667,16.352 56.8106667,16.4 56.448,16.432 C56.0853333,16.464 55.7226667,16.4906667 55.36,16.512 Z M70.368,25.6 C70.6026667,25.6 70.8853333,25.5466667 71.216,25.44 C71.5466667,25.3333333 71.872,25.2 72.192,25.04 C72.512,24.88 72.736,24.7146667 72.864,24.544 C72.864,24.3306667 72.832,24.1386667 72.768,23.968 C72.704,23.7973333 72.6506667,23.68 72.608,23.616 L72.608,23.616 L69.952,23.328 C70.0373333,23.2213333 70.1386667,23.008 70.256,22.688 C70.3733333,22.368 70.432,21.984 70.432,21.536 L70.432,21.536 L70.432,15.136 C70.5173333,15.0293333 70.656,14.88 70.848,14.688 C71.04,14.496 71.2533333,14.2933333 71.488,14.08 C71.7226667,13.8666667 71.9413333,13.6853333 72.144,13.536 C72.3466667,13.3866667 72.5013333,13.312 72.608,13.312 C72.736,13.312 72.8586667,13.4453333 72.976,13.712 C73.0933333,13.9786667 73.2106667,14.272 73.328,14.592 C73.4453333,14.912 73.536,15.1786667 73.6,15.392 C73.8133333,15.456 74.096,15.5253333 74.448,15.6 C74.8,15.6746667 75.136,15.712 75.456,15.712 C75.6053333,15.5413333 75.776,15.2373333 75.968,14.8 C76.16,14.3626667 76.3306667,13.9093333 76.48,13.44 C76.6293333,12.9706667 76.704,12.5973333 76.704,12.32 C76.704,12.1493333 76.608,11.92 76.416,11.632 C76.224,11.344 75.9733333,11.04 75.664,10.72 C75.3546667,10.4 75.0293333,10.1333333 74.688,9.92 C74.3466667,9.70666667 74.0266667,9.6 73.728,9.6 C73.4293333,9.6 73.1093333,9.73333333 72.768,10 C72.4266667,10.2666667 72.1013333,10.5866667 71.792,10.96 C71.4826667,11.3333333 71.2053333,11.6906667 70.96,12.032 C70.7146667,12.3733333 70.528,12.608 70.4,12.736 L70.4,12.736 L70.4,12.384 C70.4,11.5093333 70.1706667,10.8266667 69.712,10.336 C69.2533333,9.84533333 68.6613333,9.6 67.936,9.6 C67.296,9.6 66.6026667,9.70666667 65.856,9.92 C65.1093333,10.1333333 64.5546667,10.3253333 64.192,10.496 C64.0853333,10.624 64,10.784 63.936,10.976 C63.872,11.168 63.8186667,11.4026667 63.776,11.68 L63.776,11.68 L65.504,12.32 C65.696,12.384 65.8346667,12.4906667 65.92,12.64 C66.0053333,12.7893333 66.048,12.9706667 66.048,13.184 L66.048,13.184 L66.048,20.928 C66.048,21.6106667 66.016,22.1226667 65.952,22.464 C65.888,22.8053333 65.7866667,23.04 65.648,23.168 C65.5093333,23.296 65.3333333,23.3813333 65.12,23.424 L65.12,23.424 L64.288,23.584 C64.224,23.712 64.1546667,23.8666667 64.08,24.048 C64.0053333,24.2293333 63.968,24.4053333 63.968,24.576 C64.224,24.6613333 64.656,24.7626667 65.264,24.88 C65.872,24.9973333 66.528,25.1093333 67.232,25.216 C67.936,25.3226667 68.576,25.4133333 69.152,25.488 C69.728,25.5626667 70.1333333,25.6 70.368,25.6 Z M93.536,25.6 C93.792,25.6 94.08,25.5466667 94.4,25.44 C94.72,25.3333333 95.0293333,25.1946667 95.328,25.024 C95.6266667,24.8533333 95.8293333,24.6933333 95.936,24.544 C95.936,24.352 95.9093333,24.1706667 95.856,24 C95.8026667,23.8293333 95.7546667,23.7013333 95.712,23.616 L95.712,23.616 L93.376,23.328 C93.4613333,23.2 93.5573333,22.9813333 93.664,22.672 C93.7706667,22.3626667 93.824,21.984 93.824,21.536 L93.824,21.536 L93.824,12.768 C93.824,12.384 93.6426667,12.0053333 93.28,11.632 C92.9173333,11.2586667 92.4533333,10.9173333 91.888,10.608 C91.3226667,10.2986667 90.7253333,10.0533333 90.096,9.872 C89.4666667,9.69066667 88.9066667,9.6 88.416,9.6 C88.032,9.6 87.584,9.728 87.072,9.984 C86.56,10.24 86.048,10.5386667 85.536,10.88 C85.024,11.2213333 84.576,11.5306667 84.192,11.808 C84.1493333,11.1253333 83.904,10.5866667 83.456,10.192 C83.008,9.79733333 82.432,9.6 81.728,9.6 C81.088,9.6 80.3946667,9.70666667 79.648,9.92 C78.9013333,10.1333333 78.3466667,10.3253333 77.984,10.496 C77.8773333,10.624 77.792,10.784 77.728,10.976 C77.664,11.168 77.6106667,11.4026667 77.568,11.68 L77.568,11.68 L79.296,12.32 C79.5093333,12.4053333 79.6586667,12.5226667 79.744,12.672 C79.8293333,12.8213333 79.872,12.992 79.872,13.184 L79.872,13.184 L79.872,20.928 C79.872,21.9093333 79.8026667,22.5546667 79.664,22.864 C79.5253333,23.1733333 79.2746667,23.36 78.912,23.424 L78.912,23.424 L78.08,23.584 C78.016,23.712 77.952,23.8666667 77.888,24.048 C77.824,24.2293333 77.792,24.4053333 77.792,24.576 C78.048,24.6613333 78.4426667,24.7626667 78.976,24.88 C79.5093333,24.9973333 80.0906667,25.1093333 80.72,25.216 C81.3493333,25.3226667 81.9253333,25.4133333 82.448,25.488 C82.9706667,25.5626667 83.3386667,25.6 83.552,25.6 C83.808,25.6 84.1066667,25.5466667 84.448,25.44 C84.7893333,25.3333333 85.1146667,25.1946667 85.424,25.024 C85.7333333,24.8533333 85.9413333,24.6933333 86.048,24.544 C86.048,24.3306667 86.0213333,24.1386667 85.968,23.968 C85.9146667,23.7973333 85.8773333,23.68 85.856,23.616 L85.856,23.616 L83.648,23.328 C83.776,23.1573333 83.904,22.8853333 84.032,22.512 C84.16,22.1386667 84.224,21.728 84.224,21.28 L84.224,21.28 L84.224,13.632 C84.3733333,13.5466667 84.5973333,13.4453333 84.896,13.328 C85.1946667,13.2106667 85.5093333,13.0986667 85.84,12.992 C86.1706667,12.8853333 86.4853333,12.7946667 86.784,12.72 C87.0826667,12.6453333 87.3066667,12.608 87.456,12.608 C87.584,12.608 87.76,12.6613333 87.984,12.768 C88.208,12.8746667 88.4373333,13.0133333 88.672,13.184 C88.9066667,13.3546667 89.0986667,13.5413333 89.248,13.744 C89.3973333,13.9466667 89.472,14.1333333 89.472,14.304 L89.472,14.304 L89.472,20.928 C89.472,21.632 89.44,22.16 89.376,22.512 C89.312,22.864 89.2106667,23.104 89.072,23.232 C88.9333333,23.36 88.7573333,23.4453333 88.544,23.488 L88.544,23.488 L87.84,23.584 C87.776,23.6906667 87.7066667,23.8346667 87.632,24.016 C87.5573333,24.1973333 87.52,24.384 87.52,24.576 C87.776,24.6613333 88.1866667,24.7626667 88.752,24.88 C89.3173333,24.9973333 89.9253333,25.1093333 90.576,25.216 C91.2266667,25.3226667 91.8293333,25.4133333 92.384,25.488 C92.9386667,25.5626667 93.3226667,25.6 93.536,25.6 Z M104.832,25.6 C105.706667,25.6 106.533333,25.4613333 107.312,25.184 C108.090667,24.9066667 108.778667,24.576 109.376,24.192 C109.973333,23.808 110.421333,23.4666667 110.72,23.168 C110.698667,22.8906667 110.634667,22.6666667 110.528,22.496 C110.421333,22.3253333 110.314667,22.1973333 110.208,22.112 C109.909333,22.1546667 109.536,22.208 109.088,22.272 C108.64,22.336 108.170667,22.4 107.68,22.464 C107.189333,22.528 106.725333,22.5813333 106.288,22.624 C105.850667,22.6666667 105.493333,22.688 105.216,22.688 C105.045333,22.688 104.816,22.6293333 104.528,22.512 C104.24,22.3946667 103.946667,22.2506667 103.648,22.08 C103.349333,21.9093333 103.082667,21.7493333 102.848,21.6 C102.613333,21.4506667 102.464,21.344 102.4,21.28 C102.314667,21.1733333 102.24,20.8746667 102.176,20.384 C102.112,19.8933333 102.069333,19.3066667 102.048,18.624 C102.816,18.6026667 103.557333,18.5653333 104.272,18.512 C104.986667,18.4586667 105.658667,18.3893333 106.288,18.304 C106.917333,18.2186667 107.456,18.112 107.904,17.984 C108.16,17.856 108.474667,17.664 108.848,17.408 C109.221333,17.152 109.594667,16.8533333 109.968,16.512 C110.341333,16.1706667 110.656,15.8186667 110.912,15.456 C110.933333,15.136 110.912,14.72 110.848,14.208 C110.784,13.696 110.709333,13.1893333 110.624,12.688 C110.538667,12.1866667 110.432,11.808 110.304,11.552 C110.090667,11.296 109.722667,11.0186667 109.2,10.72 C108.677333,10.4213333 108.133333,10.16 107.568,9.936 C107.002667,9.712 106.517333,9.6 106.112,9.6 C105.472,9.6 104.784,9.70133333 104.048,9.904 C103.312,10.1066667 102.592,10.352 101.888,10.64 C101.184,10.928 100.538667,11.2213333 99.952,11.52 C99.3653333,11.8186667 98.9226667,12.064 98.624,12.256 C98.4746667,12.64 98.336,13.1573333 98.208,13.808 C98.08,14.4586667 97.9786667,15.1786667 97.904,15.968 C97.8293333,16.7573333 97.792,17.5573333 97.792,18.368 C97.792,19.2853333 97.8666667,20.1706667 98.016,21.024 C98.1653333,21.8773333 98.4,22.528 98.72,22.976 C98.8266667,23.1253333 99.0933333,23.344 99.52,23.632 C99.9466667,23.92 100.464,24.2133333 101.072,24.512 C101.68,24.8106667 102.314667,25.0666667 102.976,25.28 C103.637333,25.4933333 104.256,25.6 104.832,25.6 Z M104,16.512 C103.68,16.512 103.333333,16.496 102.96,16.464 C102.586667,16.432 102.261333,16.384 101.984,16.32 C101.984,16 101.994667,15.6426667 102.016,15.248 C102.037333,14.8533333 102.074667,14.464 102.128,14.08 C102.181333,13.696 102.261333,13.3653333 102.368,13.088 C102.56,13.0026667 102.837333,12.9066667 103.2,12.8 C103.562667,12.6933333 103.925333,12.6026667 104.288,12.528 C104.650667,12.4533333 104.917333,12.416 105.088,12.416 C105.216,12.416 105.386667,12.464 105.6,12.56 C105.813333,12.656 106.016,12.7733333 106.208,12.912 C106.4,13.0506667 106.538667,13.184 106.624,13.312 C106.709333,13.504 106.773333,13.7653333 106.816,14.096 C106.858667,14.4266667 106.890667,14.768 106.912,15.12 C106.933333,15.472 106.944,15.776 106.944,16.032 C106.752,16.1386667 106.485333,16.224 106.144,16.288 C105.802667,16.352 105.450667,16.4 105.088,16.432 C104.725333,16.464 104.362667,16.4906667 104,16.512 Z M146.496,25.6 C146.901333,25.6 147.36,25.488 147.872,25.264 C148.384,25.04 148.789333,24.8 149.088,24.544 C149.088,24.3306667 149.061333,24.1386667 149.008,23.968 C148.954667,23.7973333 148.896,23.6586667 148.832,23.552 L148.832,23.552 L145.76,23.136 C145.888,23.0506667 146.010667,22.8053333 146.128,22.4 C146.245333,21.9946667 146.282667,21.472 146.24,20.832 L146.24,20.832 L145.504,7.584 C145.482667,7.008 145.52,6.54933333 145.616,6.208 C145.712,5.86666667 145.893333,5.6 146.16,5.408 C146.426667,5.216 146.784,5.056 147.232,4.928 L147.232,4.928 L148.608,4.512 C148.586667,4.14933333 148.528,3.85066667 148.432,3.616 C148.336,3.38133333 148.245333,3.2 148.16,3.072 L148.16,3.072 L139.36,3.072 C139.082667,3.98933333 138.773333,4.96533333 138.432,6 C138.090667,7.03466667 137.722667,8.07466667 137.328,9.12 C136.933333,10.1653333 136.549333,11.1786667 136.176,12.16 C135.802667,13.1413333 135.44,14.0586667 135.088,14.912 C134.736,15.7653333 134.410667,16.512 134.112,17.152 L134.112,17.152 L128.608,3.072 L122.048,3.072 C121.92,3.072 121.712,3.13066667 121.424,3.248 C121.136,3.36533333 120.864,3.49866667 120.608,3.648 C120.352,3.79733333 120.170667,3.936 120.064,4.064 C120.085333,4.29866667 120.133333,4.50133333 120.208,4.672 C120.282667,4.84266667 120.362667,4.97066667 120.448,5.056 L120.448,5.056 L123.488,5.056 C123.424,5.12 123.317333,5.36 123.168,5.776 C123.018667,6.192 122.922667,6.79466667 122.88,7.584 L122.88,7.584 L122.144,20.224 C122.101333,21.12 122.021333,21.7813333 121.904,22.208 C121.786667,22.6346667 121.616,22.9226667 121.392,23.072 C121.168,23.2213333 120.874667,23.328 120.512,23.392 L120.512,23.392 L119.744,23.52 C119.68,23.6053333 119.616,23.744 119.552,23.936 C119.488,24.128 119.456,24.3306667 119.456,24.544 C119.690667,24.6293333 120.101333,24.7306667 120.688,24.848 C121.274667,24.9653333 121.904,25.0826667 122.576,25.2 C123.248,25.3173333 123.861333,25.4133333 124.416,25.488 C124.970667,25.5626667 125.333333,25.6 125.504,25.6 C125.76,25.6 126.069333,25.552 126.432,25.456 C126.794667,25.36 127.152,25.232 127.504,25.072 C127.856,24.912 128.149333,24.736 128.384,24.544 C128.384,24.3093333 128.352,24.1066667 128.288,23.936 C128.224,23.7653333 128.170667,23.6373333 128.128,23.552 L128.128,23.552 L124.128,23.104 C124.234667,22.976 124.346667,22.7306667 124.464,22.368 C124.581333,22.0053333 124.650667,21.5893333 124.672,21.12 L124.672,21.12 L125.28,8.8 C125.322667,8.13866667 125.370667,7.59466667 125.424,7.168 C125.477333,6.74133333 125.514667,6.47466667 125.536,6.368 L125.536,6.368 L125.728,6.368 C125.749333,6.64533333 125.829333,7.088 125.968,7.696 C126.106667,8.304 126.304,8.94933333 126.56,9.632 L126.56,9.632 L131.776,23.168 C132.437333,23.168 133.050667,23.0933333 133.616,22.944 C134.181333,22.7946667 134.581333,22.656 134.816,22.528 L134.816,22.528 L141.12,6.304 L141.376,6.4 C141.290667,6.57066667 141.226667,6.93866667 141.184,7.504 C141.141333,8.06933333 141.141333,8.768 141.184,9.6 L141.184,9.6 L141.792,20.032 C141.877333,21.0773333 141.866667,21.8293333 141.76,22.288 C141.653333,22.7466667 141.477333,23.0293333 141.232,23.136 C140.986667,23.2426667 140.661333,23.328 140.256,23.392 L140.256,23.392 L139.008,23.488 C138.944,23.5733333 138.874667,23.7226667 138.8,23.936 C138.725333,24.1493333 138.688,24.3626667 138.688,24.576 C138.901333,24.64 139.264,24.7146667 139.776,24.8 C140.288,24.8853333 140.885333,24.976 141.568,25.072 C142.250667,25.168 142.928,25.2533333 143.6,25.328 C144.272,25.4026667 144.869333,25.4666667 145.392,25.52 C145.914667,25.5733333 146.282667,25.6 146.496,25.6 Z M156.544,25.696 C156.970667,25.696 157.488,25.5946667 158.096,25.392 C158.704,25.1893333 159.322667,24.928 159.952,24.608 C160.581333,24.288 161.130667,23.9786667 161.6,23.68 C161.749333,23.9786667 161.952,24.2773333 162.208,24.576 C162.464,24.8746667 162.794667,25.12 163.2,25.312 C163.605333,25.504 164.085333,25.6 164.64,25.6 C164.96,25.6 165.322667,25.5466667 165.728,25.44 C166.133333,25.3333333 166.522667,25.1946667 166.896,25.024 C167.269333,24.8533333 167.541333,24.6613333 167.712,24.448 C167.712,24.192 167.68,23.9626667 167.616,23.76 C167.552,23.5573333 167.488,23.4026667 167.424,23.296 L167.424,23.296 L165.44,23.104 L165.44,13.184 C165.44,12.8853333 165.264,12.528 164.912,12.112 C164.56,11.696 164.112,11.3013333 163.568,10.928 C163.024,10.5546667 162.448,10.24 161.84,9.984 C161.232,9.728 160.672,9.6 160.16,9.6 C159.669333,9.6 159.093333,9.65333333 158.432,9.76 C157.770667,9.86666667 157.088,10.0213333 156.384,10.224 C155.68,10.4266667 155.002667,10.6773333 154.352,10.976 C153.701333,11.2746667 153.130667,11.616 152.64,12 C152.746667,12.7466667 152.96,13.44 153.28,14.08 C153.6,14.72 153.856,15.1893333 154.048,15.488 C154.517333,15.4453333 154.906667,15.3706667 155.216,15.264 C155.525333,15.1573333 155.733333,15.0826667 155.84,15.04 L155.84,15.04 L156.864,12.384 C157.013333,12.3626667 157.216,12.3413333 157.472,12.32 C157.728,12.2986667 157.952,12.288 158.144,12.288 C158.570667,12.288 159.050667,12.352 159.584,12.48 C160.117333,12.608 160.618667,12.8 161.088,13.056 L161.088,13.056 L161.088,16.384 C160.874667,16.4266667 160.629333,16.464 160.352,16.496 C160.074667,16.528 159.781333,16.5653333 159.472,16.608 C159.162667,16.6506667 158.848,16.6826667 158.528,16.704 C158.208,16.7253333 157.877333,16.7466667 157.536,16.768 C157.045333,16.7893333 156.576,16.816 156.128,16.848 C155.68,16.88 155.370667,16.9173333 155.2,16.96 C155.008,17.0026667 154.757333,17.1093333 154.448,17.28 C154.138667,17.4506667 153.818667,17.6533333 153.488,17.888 C153.157333,18.1226667 152.858667,18.3573333 152.592,18.592 C152.325333,18.8266667 152.138667,19.0293333 152.032,19.2 C151.989333,19.392 151.957333,19.6106667 151.936,19.856 C151.914667,20.1013333 151.904,20.3733333 151.904,20.672 C151.904,21.184 151.941333,21.696 152.016,22.208 C152.090667,22.72 152.192,23.1253333 152.32,23.424 C152.490667,23.68 152.826667,23.9893333 153.328,24.352 C153.829333,24.7146667 154.373333,25.0293333 154.96,25.296 C155.546667,25.5626667 156.074667,25.696 156.544,25.696 Z M158.112,22.848 C157.813333,22.848 157.482667,22.7466667 157.12,22.544 C156.757333,22.3413333 156.469333,22.144 156.256,21.952 C156.128,21.5893333 156.048,21.1733333 156.016,20.704 C155.984,20.2346667 155.978667,19.8293333 156,19.488 C156.32,19.2533333 156.741333,19.088 157.264,18.992 C157.786667,18.896 158.314667,18.8053333 158.848,18.72 C159.232,18.6773333 159.616,18.624 160,18.56 C160.384,18.496 160.746667,18.4426667 161.088,18.4 L161.088,18.4 L161.088,21.92 C160.853333,22.048 160.538667,22.1866667 160.144,22.336 C159.749333,22.4853333 159.365333,22.608 158.992,22.704 C158.618667,22.8 158.325333,22.848 158.112,22.848 Z M183.488,25.6 C183.893333,25.6 184.309333,25.5146667 184.736,25.344 C185.162667,25.1733333 185.552,24.9493333 185.904,24.672 C186.256,24.3946667 186.506667,24.128 186.656,23.872 C186.656,23.6373333 186.613333,23.4346667 186.528,23.264 C186.442667,23.0933333 186.378667,22.976 186.336,22.912 L186.336,22.912 L185.472,22.912 C185.109333,22.912 184.784,22.8106667 184.496,22.608 C184.208,22.4053333 183.957333,22.112 183.744,21.728 L183.744,21.728 L181.92,18.528 C181.685333,18.1226667 181.472,17.8346667 181.28,17.664 C181.088,17.4933333 180.928,17.3866667 180.8,17.344 C180.949333,17.216 181.258667,16.9866667 181.728,16.656 C182.197333,16.3253333 182.693333,15.936 183.216,15.488 C183.738667,15.04 184.197333,14.576 184.592,14.096 C184.986667,13.616 185.184,13.1733333 185.184,12.768 C185.184,12.4053333 184.997333,12.0426667 184.624,11.68 C184.250667,11.3173333 183.776,10.9813333 183.2,10.672 C182.624,10.3626667 182.032,10.1066667 181.424,9.904 C180.816,9.70133333 180.288,9.6 179.84,9.6 C179.477333,9.6 179.029333,9.712 178.496,9.936 C177.962667,10.16 177.418667,10.4373333 176.864,10.768 C176.309333,11.0986667 175.808,11.4133333 175.36,11.712 L175.36,11.712 L175.36,2.528 C175.36,1.80266667 175.130667,1.2 174.672,0.72 C174.213333,0.24 173.621333,0 172.896,0 C172.448,0 171.941333,0.0533333333 171.376,0.16 C170.810667,0.266666667 170.282667,0.389333333 169.792,0.528 C169.301333,0.666666667 168.938667,0.789333333 168.704,0.896 C168.64,0.981333333 168.56,1.12533333 168.464,1.328 C168.368,1.53066667 168.298667,1.78133333 168.256,2.08 L168.256,2.08 L170.464,2.72 C170.677333,2.784 170.821333,2.896 170.896,3.056 C170.970667,3.216 171.008,3.392 171.008,3.584 L171.008,3.584 L171.008,20.928 C171.008,21.7813333 170.96,22.4053333 170.864,22.8 C170.768,23.1946667 170.528,23.4133333 170.144,23.456 L170.144,23.456 L169.44,23.584 C169.376,23.6906667 169.306667,23.84 169.232,24.032 C169.157333,24.224 169.12,24.4053333 169.12,24.576 C169.376,24.6613333 169.765333,24.7626667 170.288,24.88 C170.810667,24.9973333 171.370667,25.1093333 171.968,25.216 C172.565333,25.3226667 173.114667,25.4133333 173.616,25.488 C174.117333,25.5626667 174.474667,25.6 174.688,25.6 C174.944,25.6 175.264,25.5466667 175.648,25.44 C176.032,25.3333333 176.394667,25.1946667 176.736,25.024 C177.077333,24.8533333 177.312,24.6933333 177.44,24.544 C177.44,24.3733333 177.418667,24.1973333 177.376,24.016 C177.333333,23.8346667 177.28,23.7013333 177.216,23.616 L177.216,23.616 L174.784,23.328 C174.912,23.1573333 175.04,22.8853333 175.168,22.512 C175.296,22.1386667 175.36,21.728 175.36,21.28 L175.36,21.28 L175.36,13.6 C175.978667,13.28 176.618667,13.008 177.28,12.784 C177.941333,12.56 178.432,12.448 178.752,12.448 C178.901333,12.448 179.082667,12.512 179.296,12.64 C179.509333,12.768 179.722667,12.9226667 179.936,13.104 C180.149333,13.2853333 180.325333,13.4666667 180.464,13.648 C180.602667,13.8293333 180.672,13.9626667 180.672,14.048 C180.672,14.1333333 180.597333,14.2773333 180.448,14.48 C180.298667,14.6826667 180.112,14.9066667 179.888,15.152 C179.664,15.3973333 179.445333,15.6266667 179.232,15.84 C179.189333,15.8826667 179.148373,15.9236267 179.10912,15.96288 L178.80192,16.27008 L178.80192,16.27008 L178.72,16.352 L177.024,16.544 C176.917333,16.672 176.805333,16.8693333 176.688,17.136 C176.570667,17.4026667 176.512,17.6746667 176.512,17.952 C176.661333,17.9946667 176.832,18.064 177.024,18.16 C177.216,18.256 177.424,18.4 177.648,18.592 C177.872,18.784 178.090667,19.0506667 178.304,19.392 L178.304,19.392 L180.32,23.392 C180.704,24.1386667 181.178667,24.6933333 181.744,25.056 C182.309333,25.4186667 182.890667,25.6 183.488,25.6 Z M195.456,25.6 C196.330667,25.6 197.157333,25.4613333 197.936,25.184 C198.714667,24.9066667 199.402667,24.576 200,24.192 C200.597333,23.808 201.045333,23.4666667 201.344,23.168 C201.322667,22.8906667 201.258667,22.6666667 201.152,22.496 C201.045333,22.3253333 200.938667,22.1973333 200.832,22.112 C200.533333,22.1546667 200.16,22.208 199.712,22.272 C199.264,22.336 198.794667,22.4 198.304,22.464 C197.813333,22.528 197.349333,22.5813333 196.912,22.624 C196.474667,22.6666667 196.117333,22.688 195.84,22.688 C195.669333,22.688 195.44,22.6293333 195.152,22.512 C194.864,22.3946667 194.570667,22.2506667 194.272,22.08 C193.973333,21.9093333 193.706667,21.7493333 193.472,21.6 C193.237333,21.4506667 193.088,21.344 193.024,21.28 C192.938667,21.1733333 192.864,20.8746667 192.8,20.384 C192.736,19.8933333 192.693333,19.3066667 192.672,18.624 C193.44,18.6026667 194.181333,18.5653333 194.896,18.512 C195.610667,18.4586667 196.282667,18.3893333 196.912,18.304 C197.541333,18.2186667 198.08,18.112 198.528,17.984 C198.784,17.856 199.098667,17.664 199.472,17.408 C199.845333,17.152 200.218667,16.8533333 200.592,16.512 C200.965333,16.1706667 201.28,15.8186667 201.536,15.456 C201.557333,15.136 201.536,14.72 201.472,14.208 C201.408,13.696 201.333333,13.1893333 201.248,12.688 C201.162667,12.1866667 201.056,11.808 200.928,11.552 C200.714667,11.296 200.346667,11.0186667 199.824,10.72 C199.301333,10.4213333 198.757333,10.16 198.192,9.936 C197.626667,9.712 197.141333,9.6 196.736,9.6 C196.096,9.6 195.408,9.70133333 194.672,9.904 C193.936,10.1066667 193.216,10.352 192.512,10.64 C191.808,10.928 191.162667,11.2213333 190.576,11.52 C189.989333,11.8186667 189.546667,12.064 189.248,12.256 C189.098667,12.64 188.96,13.1573333 188.832,13.808 C188.704,14.4586667 188.602667,15.1786667 188.528,15.968 C188.453333,16.7573333 188.416,17.5573333 188.416,18.368 C188.416,19.2853333 188.490667,20.1706667 188.64,21.024 C188.789333,21.8773333 189.024,22.528 189.344,22.976 C189.450667,23.1253333 189.717333,23.344 190.144,23.632 C190.570667,23.92 191.088,24.2133333 191.696,24.512 C192.304,24.8106667 192.938667,25.0666667 193.6,25.28 C194.261333,25.4933333 194.88,25.6 195.456,25.6 Z M194.624,16.512 C194.304,16.512 193.957333,16.496 193.584,16.464 C193.210667,16.432 192.885333,16.384 192.608,16.32 C192.608,16 192.618667,15.6426667 192.64,15.248 C192.661333,14.8533333 192.698667,14.464 192.752,14.08 C192.805333,13.696 192.885333,13.3653333 192.992,13.088 C193.184,13.0026667 193.461333,12.9066667 193.824,12.8 C194.186667,12.6933333 194.549333,12.6026667 194.912,12.528 C195.274667,12.4533333 195.541333,12.416 195.712,12.416 C195.84,12.416 196.010667,12.464 196.224,12.56 C196.437333,12.656 196.64,12.7733333 196.832,12.912 C197.024,13.0506667 197.162667,13.184 197.248,13.312 C197.333333,13.504 197.397333,13.7653333 197.44,14.096 C197.482667,14.4266667 197.514667,14.768 197.536,15.12 C197.557333,15.472 197.568,15.776 197.568,16.032 C197.376,16.1386667 197.109333,16.224 196.768,16.288 C196.426667,16.352 196.074667,16.4 195.712,16.432 C195.349333,16.464 194.986667,16.4906667 194.624,16.512 Z M209.12,25.6 C209.354667,25.6 209.637333,25.5466667 209.968,25.44 C210.298667,25.3333333 210.608,25.1946667 210.896,25.024 C211.184,24.8533333 211.381333,24.6933333 211.488,24.544 C211.488,24.352 211.461333,24.1706667 211.408,24 C211.354667,23.8293333 211.306667,23.7013333 211.264,23.616 L211.264,23.616 L208.96,23.328 C209.045333,23.2 209.141333,22.9813333 209.248,22.672 C209.354667,22.3626667 209.408,21.984 209.408,21.536 L209.408,21.536 L209.408,2.528 C209.408,1.80266667 209.178667,1.2 208.72,0.72 C208.261333,0.24 207.658667,0 206.912,0 C206.485333,0 205.989333,0.0533333333 205.424,0.16 C204.858667,0.266666667 204.325333,0.389333333 203.824,0.528 C203.322667,0.666666667 202.954667,0.789333333 202.72,0.896 C202.656,0.981333333 202.581333,1.12533333 202.496,1.328 C202.410667,1.53066667 202.346667,1.78133333 202.304,2.08 L202.304,2.08 L204.48,2.752 C204.693333,2.816 204.842667,2.928 204.928,3.088 C205.013333,3.248 205.056,3.41333333 205.056,3.584 L205.056,3.584 L205.056,20.928 C205.056,21.9093333 205.002667,22.5653333 204.896,22.896 C204.789333,23.2266667 204.554667,23.4133333 204.192,23.456 L204.192,23.456 L203.488,23.584 C203.424,23.6906667 203.354667,23.84 203.28,24.032 C203.205333,24.224 203.168,24.4053333 203.168,24.576 C203.424,24.6613333 203.829333,24.7626667 204.384,24.88 C204.938667,24.9973333 205.541333,25.1093333 206.192,25.216 C206.842667,25.3226667 207.434667,25.4133333 207.968,25.488 C208.501333,25.5626667 208.885333,25.6 209.12,25.6 Z M218.016,25.696 C218.442667,25.696 218.96,25.5946667 219.568,25.392 C220.176,25.1893333 220.794667,24.928 221.424,24.608 C222.053333,24.288 222.602667,23.9786667 223.072,23.68 C223.221333,23.9786667 223.424,24.2773333 223.68,24.576 C223.936,24.8746667 224.266667,25.12 224.672,25.312 C225.077333,25.504 225.557333,25.6 226.112,25.6 C226.432,25.6 226.794667,25.5466667 227.2,25.44 C227.605333,25.3333333 227.994667,25.1946667 228.368,25.024 C228.741333,24.8533333 229.013333,24.6613333 229.184,24.448 C229.184,24.192 229.152,23.9626667 229.088,23.76 C229.024,23.5573333 228.96,23.4026667 228.896,23.296 L228.896,23.296 L226.912,23.104 L226.912,13.184 C226.912,12.8853333 226.736,12.528 226.384,12.112 C226.032,11.696 225.584,11.3013333 225.04,10.928 C224.496,10.5546667 223.92,10.24 223.312,9.984 C222.704,9.728 222.144,9.6 221.632,9.6 C221.141333,9.6 220.565333,9.65333333 219.904,9.76 C219.242667,9.86666667 218.56,10.0213333 217.856,10.224 C217.152,10.4266667 216.474667,10.6773333 215.824,10.976 C215.173333,11.2746667 214.602667,11.616 214.112,12 C214.218667,12.7466667 214.432,13.44 214.752,14.08 C215.072,14.72 215.328,15.1893333 215.52,15.488 C215.989333,15.4453333 216.378667,15.3706667 216.688,15.264 C216.997333,15.1573333 217.205333,15.0826667 217.312,15.04 L217.312,15.04 L218.336,12.384 C218.485333,12.3626667 218.688,12.3413333 218.944,12.32 C219.2,12.2986667 219.424,12.288 219.616,12.288 C220.042667,12.288 220.522667,12.352 221.056,12.48 C221.589333,12.608 222.090667,12.8 222.56,13.056 L222.56,13.056 L222.56,16.384 C222.346667,16.4266667 222.101333,16.464 221.824,16.496 C221.546667,16.528 221.253333,16.5653333 220.944,16.608 C220.634667,16.6506667 220.32,16.6826667 220,16.704 C219.68,16.7253333 219.349333,16.7466667 219.008,16.768 C218.517333,16.7893333 218.048,16.816 217.6,16.848 C217.152,16.88 216.842667,16.9173333 216.672,16.96 C216.48,17.0026667 216.229333,17.1093333 215.92,17.28 C215.610667,17.4506667 215.290667,17.6533333 214.96,17.888 C214.629333,18.1226667 214.330667,18.3573333 214.064,18.592 C213.797333,18.8266667 213.610667,19.0293333 213.504,19.2 C213.461333,19.392 213.429333,19.6106667 213.408,19.856 C213.386667,20.1013333 213.376,20.3733333 213.376,20.672 C213.376,21.184 213.413333,21.696 213.488,22.208 C213.562667,22.72 213.664,23.1253333 213.792,23.424 C213.962667,23.68 214.298667,23.9893333 214.8,24.352 C215.301333,24.7146667 215.845333,25.0293333 216.432,25.296 C217.018667,25.5626667 217.546667,25.696 218.016,25.696 Z M219.584,22.848 C219.285333,22.848 218.954667,22.7466667 218.592,22.544 C218.229333,22.3413333 217.941333,22.144 217.728,21.952 C217.6,21.5893333 217.52,21.1733333 217.488,20.704 C217.456,20.2346667 217.450667,19.8293333 217.472,19.488 C217.792,19.2533333 218.213333,19.088 218.736,18.992 C219.258667,18.896 219.786667,18.8053333 220.32,18.72 C220.704,18.6773333 221.088,18.624 221.472,18.56 C221.856,18.496 222.218667,18.4426667 222.56,18.4 L222.56,18.4 L222.56,21.92 C222.325333,22.048 222.010667,22.1866667 221.616,22.336 C221.221333,22.4853333 220.837333,22.608 220.464,22.704 C220.090667,22.8 219.797333,22.848 219.584,22.848 Z M235.808,25.696 C236.234667,25.696 236.752,25.5946667 237.36,25.392 C237.968,25.1893333 238.586667,24.928 239.216,24.608 C239.845333,24.288 240.394667,23.9786667 240.864,23.68 C241.013333,23.9786667 241.216,24.2773333 241.472,24.576 C241.728,24.8746667 242.058667,25.12 242.464,25.312 C242.869333,25.504 243.349333,25.6 243.904,25.6 C244.224,25.6 244.586667,25.5466667 244.992,25.44 C245.397333,25.3333333 245.786667,25.1946667 246.16,25.024 C246.533333,24.8533333 246.805333,24.6613333 246.976,24.448 C246.976,24.192 246.944,23.9626667 246.88,23.76 C246.816,23.5573333 246.752,23.4026667 246.688,23.296 L246.688,23.296 L244.704,23.104 L244.704,13.184 C244.704,12.8853333 244.528,12.528 244.176,12.112 C243.824,11.696 243.376,11.3013333 242.832,10.928 C242.288,10.5546667 241.712,10.24 241.104,9.984 C240.496,9.728 239.936,9.6 239.424,9.6 C238.933333,9.6 238.357333,9.65333333 237.696,9.76 C237.034667,9.86666667 236.352,10.0213333 235.648,10.224 C234.944,10.4266667 234.266667,10.6773333 233.616,10.976 C232.965333,11.2746667 232.394667,11.616 231.904,12 C232.010667,12.7466667 232.224,13.44 232.544,14.08 C232.864,14.72 233.12,15.1893333 233.312,15.488 C233.781333,15.4453333 234.170667,15.3706667 234.48,15.264 C234.789333,15.1573333 234.997333,15.0826667 235.104,15.04 L235.104,15.04 L236.128,12.384 C236.277333,12.3626667 236.48,12.3413333 236.736,12.32 C236.992,12.2986667 237.216,12.288 237.408,12.288 C237.834667,12.288 238.314667,12.352 238.848,12.48 C239.381333,12.608 239.882667,12.8 240.352,13.056 L240.352,13.056 L240.352,16.384 C240.138667,16.4266667 239.893333,16.464 239.616,16.496 C239.338667,16.528 239.045333,16.5653333 238.736,16.608 C238.426667,16.6506667 238.112,16.6826667 237.792,16.704 C237.472,16.7253333 237.141333,16.7466667 236.8,16.768 C236.309333,16.7893333 235.84,16.816 235.392,16.848 C234.944,16.88 234.634667,16.9173333 234.464,16.96 C234.272,17.0026667 234.021333,17.1093333 233.712,17.28 C233.402667,17.4506667 233.082667,17.6533333 232.752,17.888 C232.421333,18.1226667 232.122667,18.3573333 231.856,18.592 C231.589333,18.8266667 231.402667,19.0293333 231.296,19.2 C231.253333,19.392 231.221333,19.6106667 231.2,19.856 C231.178667,20.1013333 231.168,20.3733333 231.168,20.672 C231.168,21.184 231.205333,21.696 231.28,22.208 C231.354667,22.72 231.456,23.1253333 231.584,23.424 C231.754667,23.68 232.090667,23.9893333 232.592,24.352 C233.093333,24.7146667 233.637333,25.0293333 234.224,25.296 C234.810667,25.5626667 235.338667,25.696 235.808,25.696 Z M237.376,22.848 C237.077333,22.848 236.746667,22.7466667 236.384,22.544 C236.021333,22.3413333 235.733333,22.144 235.52,21.952 C235.392,21.5893333 235.312,21.1733333 235.28,20.704 C235.248,20.2346667 235.242667,19.8293333 235.264,19.488 C235.584,19.2533333 236.005333,19.088 236.528,18.992 C237.050667,18.896 237.578667,18.8053333 238.112,18.72 C238.496,18.6773333 238.88,18.624 239.264,18.56 C239.648,18.496 240.010667,18.4426667 240.352,18.4 L240.352,18.4 L240.352,21.92 C240.117333,22.048 239.802667,22.1866667 239.408,22.336 C239.013333,22.4853333 238.629333,22.608 238.256,22.704 C237.882667,22.8 237.589333,22.848 237.376,22.848 Z M254.912,25.6 C255.146667,25.6 255.429333,25.5466667 255.76,25.44 C256.090667,25.3333333 256.416,25.2 256.736,25.04 C257.056,24.88 257.28,24.7146667 257.408,24.544 C257.408,24.3306667 257.376,24.1386667 257.312,23.968 C257.248,23.7973333 257.194667,23.68 257.152,23.616 L257.152,23.616 L254.496,23.328 C254.581333,23.2213333 254.682667,23.008 254.8,22.688 C254.917333,22.368 254.976,21.984 254.976,21.536 L254.976,21.536 L254.976,15.136 C255.061333,15.0293333 255.2,14.88 255.392,14.688 C255.584,14.496 255.797333,14.2933333 256.032,14.08 C256.266667,13.8666667 256.485333,13.6853333 256.688,13.536 C256.890667,13.3866667 257.045333,13.312 257.152,13.312 C257.28,13.312 257.402667,13.4453333 257.52,13.712 C257.637333,13.9786667 257.754667,14.272 257.872,14.592 C257.989333,14.912 258.08,15.1786667 258.144,15.392 C258.357333,15.456 258.64,15.5253333 258.992,15.6 C259.344,15.6746667 259.68,15.712 260,15.712 C260.149333,15.5413333 260.32,15.2373333 260.512,14.8 C260.704,14.3626667 260.874667,13.9093333 261.024,13.44 C261.173333,12.9706667 261.248,12.5973333 261.248,12.32 C261.248,12.1493333 261.152,11.92 260.96,11.632 C260.768,11.344 260.517333,11.04 260.208,10.72 C259.898667,10.4 259.573333,10.1333333 259.232,9.92 C258.890667,9.70666667 258.570667,9.6 258.272,9.6 C257.973333,9.6 257.653333,9.73333333 257.312,10 C256.970667,10.2666667 256.645333,10.5866667 256.336,10.96 C256.026667,11.3333333 255.749333,11.6906667 255.504,12.032 C255.258667,12.3733333 255.072,12.608 254.944,12.736 L254.944,12.736 L254.944,12.384 C254.944,11.5093333 254.714667,10.8266667 254.256,10.336 C253.797333,9.84533333 253.205333,9.6 252.48,9.6 C251.84,9.6 251.146667,9.70666667 250.4,9.92 C249.653333,10.1333333 249.098667,10.3253333 248.736,10.496 C248.629333,10.624 248.544,10.784 248.48,10.976 C248.416,11.168 248.362667,11.4026667 248.32,11.68 L248.32,11.68 L250.048,12.32 C250.24,12.384 250.378667,12.4906667 250.464,12.64 C250.549333,12.7893333 250.592,12.9706667 250.592,13.184 L250.592,13.184 L250.592,20.928 C250.592,21.6106667 250.56,22.1226667 250.496,22.464 C250.432,22.8053333 250.330667,23.04 250.192,23.168 C250.053333,23.296 249.877333,23.3813333 249.664,23.424 L249.664,23.424 L248.832,23.584 C248.768,23.712 248.698667,23.8666667 248.624,24.048 C248.549333,24.2293333 248.512,24.4053333 248.512,24.576 C248.768,24.6613333 249.2,24.7626667 249.808,24.88 C250.416,24.9973333 251.072,25.1093333 251.776,25.216 C252.48,25.3226667 253.12,25.4133333 253.696,25.488 C254.272,25.5626667 254.677333,25.6 254.912,25.6 Z M268.032,25.6 C268.565333,25.6 269.168,25.536 269.84,25.408 C270.512,25.28 271.168,25.12 271.808,24.928 C272.448,24.736 273.024,24.5333333 273.536,24.32 C274.048,24.1066667 274.432,23.904 274.688,23.712 C274.858667,23.4346667 275.008,22.9333333 275.136,22.208 C275.264,21.4826667 275.328,20.768 275.328,20.064 C275.328,19.7226667 275.312,19.3653333 275.28,18.992 C275.248,18.6186667 275.189333,18.3146667 275.104,18.08 C274.869333,17.824 274.453333,17.5733333 273.856,17.328 C273.258667,17.0826667 272.586667,16.8533333 271.84,16.64 C271.093333,16.4266667 270.352,16.2293333 269.616,16.048 C268.88,15.8666667 268.261333,15.7066667 267.76,15.568 C267.258667,15.4293333 266.965333,15.328 266.88,15.264 C266.837333,15.072 266.805333,14.8853333 266.784,14.704 C266.762667,14.5226667 266.752,14.3146667 266.752,14.08 C266.752,13.888 266.762667,13.6693333 266.784,13.424 C266.805333,13.1786667 266.848,12.9386667 266.912,12.704 C267.189333,12.64 267.504,12.5813333 267.856,12.528 C268.208,12.4746667 268.592,12.4373333 269.008,12.416 C269.424,12.3946667 269.824,12.384 270.208,12.384 C270.4,12.384 270.629333,12.6346667 270.896,13.136 C271.162667,13.6373333 271.456,14.24 271.776,14.944 C271.904,15.008 272.128,15.0826667 272.448,15.168 C272.768,15.2533333 273.152,15.3066667 273.6,15.328 C273.770667,15.072 273.946667,14.7146667 274.128,14.256 C274.309333,13.7973333 274.464,13.3386667 274.592,12.88 C274.72,12.4213333 274.784,12.0853333 274.784,11.872 C274.784,11.7653333 274.602667,11.584 274.24,11.328 C273.877333,11.072 273.424,10.816 272.88,10.56 C272.336,10.304 271.792,10.08 271.248,9.888 C270.704,9.696 270.250667,9.6 269.888,9.6 C269.354667,9.6 268.757333,9.67466667 268.096,9.824 C267.434667,9.97333333 266.778667,10.1546667 266.128,10.368 C265.477333,10.5813333 264.885333,10.8 264.352,11.024 C263.818667,11.248 263.434667,11.4453333 263.2,11.616 C263.008,12.064 262.853333,12.64 262.736,13.344 C262.618667,14.048 262.56,14.7413333 262.56,15.424 C262.56,15.7226667 262.570667,16.0373333 262.592,16.368 C262.613333,16.6986667 262.645333,16.9706667 262.688,17.184 C262.794667,17.3546667 263.130667,17.552 263.696,17.776 C264.261333,18 264.938667,18.2346667 265.728,18.48 C266.517333,18.7253333 267.301333,18.9546667 268.08,19.168 C268.858667,19.3813333 269.52,19.5733333 270.064,19.744 C270.608,19.9146667 270.912,20.0426667 270.976,20.128 C270.997333,20.2133333 271.018667,20.3466667 271.04,20.528 C271.061333,20.7093333 271.072,20.8853333 271.072,21.056 C271.072,21.3546667 271.045333,21.6533333 270.992,21.952 C270.938667,22.2506667 270.88,22.4746667 270.816,22.624 C270.432,22.7946667 270.010667,22.9013333 269.552,22.944 C269.093333,22.9866667 268.672,23.008 268.288,23.008 C268.053333,23.008 267.738667,22.9866667 267.344,22.944 C266.949333,22.9013333 266.634667,22.848 266.4,22.784 C266.186667,22.4 265.973333,21.952 265.76,21.44 C265.546667,20.928 265.376,20.512 265.248,20.192 C265.12,20.1066667 264.896,20.0213333 264.576,19.936 C264.256,19.8506667 263.893333,19.808 263.488,19.808 C263.274667,20.192 263.056,20.7253333 262.832,21.408 C262.608,22.0906667 262.485333,22.752 262.464,23.392 C262.506667,23.52 262.714667,23.7013333 263.088,23.936 C263.461333,24.1706667 263.930667,24.416 264.496,24.672 C265.061333,24.928 265.653333,25.1466667 266.272,25.328 C266.890667,25.5093333 267.477333,25.6 268.032,25.6 Z" id="PoterneMakelaars" fill="#333333"></path>
            <path d="M280.256,25.792 C280.533333,25.792 280.848,25.7066667 281.2,25.536 C281.552,25.3653333 281.904,25.1573333 282.256,24.912 C282.608,24.6666667 282.901333,24.4106667 283.136,24.144 C283.370667,23.8773333 283.488,23.6373333 283.488,23.424 C283.488,23.2106667 283.402667,22.928 283.232,22.576 C283.061333,22.224 282.842667,21.8666667 282.576,21.504 C282.309333,21.1413333 282.037333,20.8426667 281.76,20.608 C281.482667,20.3733333 281.237333,20.256 281.024,20.256 C280.810667,20.256 280.517333,20.3413333 280.144,20.512 C279.770667,20.6826667 279.392,20.896 279.008,21.152 C278.624,21.408 278.298667,21.6693333 278.032,21.936 C277.765333,22.2026667 277.632,22.4426667 277.632,22.656 C277.632,22.8693333 277.733333,23.152 277.936,23.504 C278.138667,23.856 278.384,24.208 278.672,24.56 C278.96,24.912 279.253333,25.2053333 279.552,25.44 C279.850667,25.6746667 280.085333,25.792 280.256,25.792 Z" id="." fill="#F37147"></path>
        </g>
    </g>
</svg>